<svg width="84" height="82" viewBox="0 0 84 82" fill="none" xmlns="http://www.w3.org/2000/svg">
<path d="M36.9502 54.1799H42H46C49.3137 54.1799 52 56.8662 52 60.1799V72.1799V80.1799H64.5H72C73.6569 80.1799 75 78.8368 75 77.1799V67.1799V44.1799H79.3226C81.0826 44.1799 81.9845 42.0707 80.7686 40.7982L62.5 21.6799L44.1452 2.42978C42.973 1.20038 41.0148 1.18859 39.8279 2.40378L3.31847 39.7825C2.08136 41.049 2.97873 43.1799 4.74922 43.1799H9V55.1799V67.1799V78.6799C9 79.5084 9.67157 80.1799 10.5 80.1799H19.5H31L30.9502 72.1799V60.1799C30.9502 56.8662 33.6365 54.1799 36.9502 54.1799Z" stroke="white" stroke-width="3" stroke-linejoin="round"/>
</svg>
