<svg width="81" height="81" viewBox="0 0 81 81" fill="none" xmlns="http://www.w3.org/2000/svg">
<path d="M34.9565 53.4312H40.0063H44.0063C47.3201 53.4312 50.0063 56.1174 50.0063 59.4312V71.4312V79.4312H62.5063H70.0063C71.6632 79.4312 73.0063 78.088 73.0063 76.4312V66.4312V43.4312H77.3324C79.0918 43.4312 79.9939 41.3229 78.7791 40.0502L42.1516 1.67857C40.9792 0.450289 39.0219 0.439047 37.8354 1.65378L1.32482 39.0337C0.0877059 40.3002 0.98508 42.4312 2.75557 42.4312H7.00635V54.4312V66.4312V77.9312C7.00635 78.7596 7.67792 79.4312 8.50635 79.4312H17.5063H29.0063L28.9566 71.4312V59.4312C28.9566 56.1174 31.6428 53.4312 34.9565 53.4312Z" fill="#2196F7"/>
</svg>
