<svg width="89" height="89" viewBox="0 0 89 89" fill="none" xmlns="http://www.w3.org/2000/svg">
<path d="M40.3037 4.15649C42.4797 1.92879 46.0697 1.95081 48.2188 4.20435L66.5723 23.4524L84.8408 42.5715C87.5762 45.4346 85.5467 50.1799 81.5869 50.1799H79.7646V80.6799C79.7646 83.7175 77.3022 86.1799 74.2646 86.1799H54.2646C52.8839 86.1799 51.7646 85.0606 51.7646 83.6799V63.6799C51.7646 61.7469 50.1976 60.1799 48.2646 60.1799H39.2148C37.2819 60.1799 35.7148 61.7469 35.7148 63.6799V75.6643L35.7646 83.6643C35.7688 84.33 35.5074 84.9704 35.0381 85.4426C34.5688 85.9148 33.9303 86.1799 33.2646 86.1799H12.7646C10.5555 86.1799 8.76465 84.3891 8.76465 82.1799V49.1799H7.01367C3.0302 49.1798 1.01148 44.3851 3.79492 41.5354L40.3037 4.15649Z" fill="#2196F7" stroke="#2197F7" stroke-width="5" stroke-linejoin="round"/>
</svg>
